<?xml version="1.0" encoding="utf-8"?>
<!-- Generator: Adobe Illustrator 13.0.0, SVG Export Plug-In . SVG Version: 6.00 Build 14948)  -->
<!DOCTYPE svg PUBLIC "-//W3C//DTD SVG 1.0//EN" "http://www.w3.org/TR/2001/REC-SVG-20010904/DTD/svg10.dtd">
<svg version="1.0" id="svg1923" xmlns:svg="http://www.w3.org/2000/svg"
	 xmlns="http://www.w3.org/2000/svg" xmlns:xlink="http://www.w3.org/1999/xlink" x="0px" y="0px" width="733px" height="733px"
	 viewBox="0 0 733 733" enable-background="new 0 0 733 733" xml:space="preserve">
<path id="path2389" d="M733,366.5c0.058,202.453-164.047,366.604-366.5,366.604C164.047,733.104-0.057,568.953,0,366.5
	C-0.057,164.047,164.047-0.104,366.5-0.104C568.953-0.104,733.058,164.047,733,366.5z"/>
<path id="path3161" fill="#FEDE58" d="M699,369.5c0.053,185.881-150.619,336.595-336.5,336.595S25.947,555.381,26,369.5
	C25.947,183.619,176.619,32.905,362.5,32.905S699.053,183.619,699,369.5z"/>
<path id="path2396" d="M325.269,665.38C203.71,644.414,131.304,549.976,112.546,431.842l0.325-7.51l-24.975-0.998l-0.575-18.472
	h240.356h240.355c6.1,12.924,9.521,26.896,12.432,40.827c13.741,94.06-37.52,146.312-113.965,193.475
	C422.411,661.653,374.11,668.182,325.269,665.38z"/>
<path id="path2394" fill="#871945" d="M372.142,647.444c52.145-6.32,98.16-28.53,137.816-62.177
	c27.607-24.784,46.343-56.607,51.51-87.493c3.354-20.054,0.301-57.095-5.747-69.707l-422.394-0.677
	c-2.013,55.109,38.286,117.108,73.464,156.853c30.822,33.918,71.824,53.974,116.305,62.779
	C333.846,648.587,360.974,648.819,372.142,647.444z"/>
<path id="path3276" fill="#F9BEDD" stroke="#F9BEDD" d="M504.08,589.996c0,0-46.109,39.714-105.13,53.061
	c-65.754,14.869-114.262-6.335-114.262-6.335s14.787-76.838,93.712-95.459C453.815,523.472,504.08,589.996,504.08,589.996z"/>
<g id="eyes">
	<path id="path2392" d="M75.777,342.197c-12.957-25.885-12.62-57.194-8.481-85.107c5.882-27.438,18.371-52.174,34.564-68.46
		c20.758-19.808,49.821-22.946,76.946-17.563c14.779,4.219,27.758,11.726,39.638,22.926c17.561,16.557,29.965,39.584,36.025,66.877
		c3.079,19.815,3.942,40.925-0.437,60.621l-6.356,20.968l-85.384,0.237C115.329,342.827,76.398,342.602,75.777,342.197z"/>
	<path id="path2388" d="M378.256,341.21c-1.813-3.432-6.06-18.125-7.756-26.834c-4.932-28.855-0.113-57.246,11.793-83.679
		c14.815-29.63,40.722-51.242,71.566-59.699c29.363-6.658,57.091-0.186,82.217,15.256c25.5,17.19,44.935,48.888,50.319,82.067
		c1.915,11.805,1.921,32.593,0.013,44.355c-1.607,9.903-5.807,26.518-8.11,30.134l-100.275,0.148
		C384.903,342.958,379.125,342.856,378.256,341.21z"/>
	<path fill="#FFFFFF" d="M237.231,264.443c-8.581-37.675-24.257-73.007-66.566-77.694c-2.831-0.251-6.187-0.172-9.664,0.142
		c-3.478-0.314-6.833-0.394-9.664-0.142c-42.309,4.688-57.985,40.02-66.566,77.694c-1.045,6.008-1.414,14.49-1.261,23.147
		c-0.294,15.492,1.312,31.371,4.338,35.015c0.114,0.138,0.914,0.266,2.266,0.385c7.293,0.783,39.034,1.163,70.887,1.15
		c31.853,0.013,63.594-0.367,70.887-1.15c1.352-0.119,2.152-0.247,2.266-0.385c3.026-3.645,4.632-19.523,4.338-35.015
		C238.645,278.933,238.276,270.451,237.231,264.443z"/>
	<path id="path" fill="#FFFFFF" d="M563.587,322.771c4.239-4.9,6.526-38.707,3.679-54.421
		c-5.811-24.476-14.974-47.883-33.858-61.358c-6.456-5.738-14.205-10.184-23.593-12.862c-1.013-0.723-4.257-2.097-7.844-3.295
		c-51.266-17.119-104.911,19.943-115.335,79.68c-2.658,15.24-0.046,43.156,3.823,53.329l67.287,0.113
		c27.959,0.304,65.548,0.232,87.593-0.228c7.421-0.114,11.949-0.273,14.532-0.491C562.122,323.098,563.438,322.943,563.587,322.771z
		"/>
	<circle cx="114" cy="294" r="40"/>
	<circle cx="416" cy="294" r="40"/>
	<line fill="none" stroke="#000000" stroke-width="15" x1="157.601" y1="117.103" x2="306.094" y2="202.599"/>
	<line fill="none" stroke="#000000" stroke-width="15" x1="299.594" y1="201.599" x2="493.084" y2="123.603"/>
</g>
</svg>
